<?xml version="1.0" encoding="UTF-8" standalone="no"?>
<!DOCTYPE svg PUBLIC "-//W3C//DTD SVG 1.1//EN"
 "http://www.w3.org/Graphics/SVG/1.1/DTD/svg11.dtd">
<!-- Generated by graphviz version 2.43.0 (0)
 -->
<!-- Title: %3 Pages: 1 -->
<svg width="837pt" height="128pt"
 viewBox="0.00 0.00 837.00 128.00" xmlns="http://www.w3.org/2000/svg" xmlns:xlink="http://www.w3.org/1999/xlink">
<g id="graph0" class="graph" transform="scale(1 1) rotate(0) translate(4 124)">
<title>%3</title>
<polygon fill="white" stroke="transparent" points="-4,4 -4,-124 833,-124 833,4 -4,4"/>
<!-- 136915545836096 -->
<g id="node1" class="node">
<title>136915545836096</title>
<polygon fill="none" stroke="black" points="0,-83.5 0,-119.5 190,-119.5 190,-83.5 0,-83.5"/>
<text text-anchor="middle" x="11.5" y="-97.8" font-family="Times,serif" font-size="14.00">a</text>
<polyline fill="none" stroke="black" points="23,-83.5 23,-119.5 "/>
<text text-anchor="middle" x="65.5" y="-97.8" font-family="Times,serif" font-size="14.00">data &#45;2.0000</text>
<polyline fill="none" stroke="black" points="108,-83.5 108,-119.5 "/>
<text text-anchor="middle" x="149" y="-97.8" font-family="Times,serif" font-size="14.00">grad 5.0000</text>
</g>
<!-- 136915545839456* -->
<g id="node3" class="node">
<title>136915545839456*</title>
<ellipse fill="none" stroke="black" cx="253" cy="-73.5" rx="27" ry="18"/>
<text text-anchor="middle" x="253" y="-69.8" font-family="Times,serif" font-size="14.00">*</text>
</g>
<!-- 136915545836096&#45;&gt;136915545839456* -->
<g id="edge5" class="edge">
<title>136915545836096&#45;&gt;136915545839456*</title>
<path fill="none" stroke="black" d="M190.34,-84.57C199.62,-82.9 208.58,-81.29 216.66,-79.84"/>
<polygon fill="black" stroke="black" points="217.49,-83.25 226.72,-78.04 216.26,-76.36 217.49,-83.25"/>
</g>
<!-- 136915545839456 -->
<g id="node2" class="node">
<title>136915545839456</title>
<polygon fill="none" stroke="black" points="316,-55.5 316,-91.5 513,-91.5 513,-55.5 316,-55.5"/>
<text text-anchor="middle" x="327.5" y="-69.8" font-family="Times,serif" font-size="14.00">d</text>
<polyline fill="none" stroke="black" points="339,-55.5 339,-91.5 "/>
<text text-anchor="middle" x="385" y="-69.8" font-family="Times,serif" font-size="14.00">data &#45;10.0000</text>
<polyline fill="none" stroke="black" points="431,-55.5 431,-91.5 "/>
<text text-anchor="middle" x="472" y="-69.8" font-family="Times,serif" font-size="14.00">grad 1.0000</text>
</g>
<!-- 136915545844592+ -->
<g id="node5" class="node">
<title>136915545844592+</title>
<ellipse fill="none" stroke="black" cx="576" cy="-45.5" rx="27" ry="18"/>
<text text-anchor="middle" x="576" y="-41.8" font-family="Times,serif" font-size="14.00">+</text>
</g>
<!-- 136915545839456&#45;&gt;136915545844592+ -->
<g id="edge6" class="edge">
<title>136915545839456&#45;&gt;136915545844592+</title>
<path fill="none" stroke="black" d="M513.33,-56.33C522.66,-54.69 531.64,-53.11 539.72,-51.69"/>
<polygon fill="black" stroke="black" points="540.54,-55.1 549.78,-49.93 539.33,-48.21 540.54,-55.1"/>
</g>
<!-- 136915545839456*&#45;&gt;136915545839456 -->
<g id="edge1" class="edge">
<title>136915545839456*&#45;&gt;136915545839456</title>
<path fill="none" stroke="black" d="M280.34,-73.5C287.81,-73.5 296.44,-73.5 305.64,-73.5"/>
<polygon fill="black" stroke="black" points="305.83,-77 315.83,-73.5 305.83,-70 305.83,-77"/>
</g>
<!-- 136915545844592 -->
<g id="node4" class="node">
<title>136915545844592</title>
<polygon fill="none" stroke="black" points="639,-27.5 639,-63.5 829,-63.5 829,-27.5 639,-27.5"/>
<text text-anchor="middle" x="650.5" y="-41.8" font-family="Times,serif" font-size="14.00">e</text>
<polyline fill="none" stroke="black" points="662,-27.5 662,-63.5 "/>
<text text-anchor="middle" x="704.5" y="-41.8" font-family="Times,serif" font-size="14.00">data &#45;3.0000</text>
<polyline fill="none" stroke="black" points="747,-27.5 747,-63.5 "/>
<text text-anchor="middle" x="788" y="-41.8" font-family="Times,serif" font-size="14.00">grad 1.0000</text>
</g>
<!-- 136915545844592+&#45;&gt;136915545844592 -->
<g id="edge2" class="edge">
<title>136915545844592+&#45;&gt;136915545844592</title>
<path fill="none" stroke="black" d="M603.11,-45.5C610.63,-45.5 619.32,-45.5 628.58,-45.5"/>
<polygon fill="black" stroke="black" points="628.81,-49 638.81,-45.5 628.81,-42 628.81,-49"/>
</g>
<!-- 136915545845120 -->
<g id="node6" class="node">
<title>136915545845120</title>
<polygon fill="none" stroke="black" points="322,-0.5 322,-36.5 507,-36.5 507,-0.5 322,-0.5"/>
<text text-anchor="middle" x="333.5" y="-14.8" font-family="Times,serif" font-size="14.00">c</text>
<polyline fill="none" stroke="black" points="345,-0.5 345,-36.5 "/>
<text text-anchor="middle" x="385" y="-14.8" font-family="Times,serif" font-size="14.00">data 7.0000</text>
<polyline fill="none" stroke="black" points="425,-0.5 425,-36.5 "/>
<text text-anchor="middle" x="466" y="-14.8" font-family="Times,serif" font-size="14.00">grad 1.0000</text>
</g>
<!-- 136915545845120&#45;&gt;136915545844592+ -->
<g id="edge4" class="edge">
<title>136915545845120&#45;&gt;136915545844592+</title>
<path fill="none" stroke="black" d="M507.36,-34.05C518.75,-35.98 529.8,-37.85 539.56,-39.5"/>
<polygon fill="black" stroke="black" points="539.15,-42.98 549.59,-41.2 540.32,-36.08 539.15,-42.98"/>
</g>
<!-- 136915545840032 -->
<g id="node7" class="node">
<title>136915545840032</title>
<polygon fill="none" stroke="black" points="0.5,-28.5 0.5,-64.5 189.5,-64.5 189.5,-28.5 0.5,-28.5"/>
<text text-anchor="middle" x="12" y="-42.8" font-family="Times,serif" font-size="14.00">b</text>
<polyline fill="none" stroke="black" points="23.5,-28.5 23.5,-64.5 "/>
<text text-anchor="middle" x="63.5" y="-42.8" font-family="Times,serif" font-size="14.00">data 5.0000</text>
<polyline fill="none" stroke="black" points="103.5,-28.5 103.5,-64.5 "/>
<text text-anchor="middle" x="146.5" y="-42.8" font-family="Times,serif" font-size="14.00">grad &#45;2.0000</text>
</g>
<!-- 136915545840032&#45;&gt;136915545839456* -->
<g id="edge3" class="edge">
<title>136915545840032&#45;&gt;136915545839456*</title>
<path fill="none" stroke="black" d="M189.9,-62.75C199.33,-64.38 208.45,-65.96 216.65,-67.38"/>
<polygon fill="black" stroke="black" points="216.06,-70.83 226.51,-69.09 217.26,-63.93 216.06,-70.83"/>
</g>
</g>
</svg>
